<svg width="1400" height="760" viewBox="0 0 1400 760" xmlns="http://www.w3.org/2000/svg" role="img" aria-label="Tela de acompanhamento de usuário do sistema Recomeçar">
  <rect width="1400" height="760" fill="#f1f5f9"/>
  <rect x="40" y="40" width="1320" height="680" rx="18" fill="#ffffff" stroke="#d1d5db"/>
  <text x="80" y="94" font-family="Arial" font-size="38" font-weight="700" fill="#111827">Acompanhamento de Usuário</text>

  <rect x="80" y="126" width="1240" height="2" fill="#e5e7eb"/>

  <rect x="80" y="154" width="280" height="112" rx="14" fill="#eff6ff" stroke="#93c5fd"/>
  <text x="100" y="194" font-family="Arial" font-size="24" fill="#1d4ed8">Status Atual</text>
  <text x="100" y="232" font-family="Arial" font-size="30" font-weight="700" fill="#1e3a8a">Em acompanhamento</text>

  <rect x="380" y="154" width="280" height="112" rx="14" fill="#ecfeff" stroke="#67e8f9"/>
  <text x="400" y="194" font-family="Arial" font-size="24" fill="#0e7490">Última ação</text>
  <text x="400" y="232" font-family="Arial" font-size="30" font-weight="700" fill="#155e75">Atualização cadastral</text>

  <rect x="680" y="154" width="280" height="112" rx="14" fill="#f0fdf4" stroke="#86efac"/>
  <text x="700" y="194" font-family="Arial" font-size="24" fill="#15803d">Responsável</text>
  <text x="700" y="232" font-family="Arial" font-size="30" font-weight="700" fill="#14532d">Equipe Recomeçar</text>

  <rect x="980" y="154" width="340" height="112" rx="14" fill="#fff7ed" stroke="#fdba74"/>
  <text x="1000" y="194" font-family="Arial" font-size="24" fill="#c2410c">Próxima revisão</text>
  <text x="1000" y="232" font-family="Arial" font-size="30" font-weight="700" fill="#7c2d12">Em 7 dias</text>

  <text x="80" y="316" font-family="Arial" font-size="30" font-weight="700" fill="#111827">Linha do tempo</text>
  <line x1="118" y1="346" x2="118" y2="670" stroke="#cbd5e1" stroke-width="6"/>

  <circle cx="118" cy="386" r="13" fill="#22c55e"/>
  <circle cx="118" cy="482" r="13" fill="#3b82f6"/>
  <circle cx="118" cy="578" r="13" fill="#f59e0b"/>

  <rect x="150" y="356" width="1170" height="58" rx="10" fill="#f8fafc" stroke="#e2e8f0"/>
  <text x="170" y="392" font-family="Arial" font-size="24" fill="#0f172a">Cadastro validado e documentação anexada.</text>

  <rect x="150" y="452" width="1170" height="58" rx="10" fill="#f8fafc" stroke="#e2e8f0"/>
  <text x="170" y="488" font-family="Arial" font-size="24" fill="#0f172a">Avaliação social concluída com observações registradas.</text>

  <rect x="150" y="548" width="1170" height="58" rx="10" fill="#f8fafc" stroke="#e2e8f0"/>
  <text x="170" y="584" font-family="Arial" font-size="24" fill="#0f172a">Encaminhamento profissional em andamento.</text>
</svg>
